<?xml version="1.0" encoding="utf-8"?>
<!-- Generator: Adobe Illustrator 23.1.0, SVG Export Plug-In . SVG Version: 6.00 Build 0)  -->
<svg version="1.1" id="Layer_1" xmlns="http://www.w3.org/2000/svg" xmlns:xlink="http://www.w3.org/1999/xlink" x="0px" y="0px"
	 viewBox="0 0 7.74 1.82" style="enable-background:new 0 0 7.74 1.82;" xml:space="preserve">
<style type="text/css">
	.st0{fill:#FFFFFF;}
</style>
<g>
	<path class="st0" d="M1.55,0.38H1.28v0.63c0,0.03-0.01,0.06-0.01,0.08C1.23,1.17,1.16,1.25,1.04,1.25c-0.08,0-0.14-0.04-0.17-0.1
		V0.38H0.83H0.56h0v0.88c0,0.26-0.11,0.34-0.3,0.34c-0.08,0-0.16-0.01-0.21-0.03L0,1.79c0.07,0.02,0.2,0.04,0.29,0.04
		c0.29,0,0.5-0.1,0.56-0.36c0.03,0.01,0.07,0.01,0.1,0.01c0.21,0,0.31-0.13,0.36-0.2h0.01l0.01,0.18h0.23
		C1.55,1.37,1.55,1.26,1.55,1.13V0.38z"/>
	<path class="st0" d="M2.27,0.84C2.13,0.8,2.08,0.77,2.08,0.7c0-0.07,0.06-0.11,0.15-0.11c0.1,0,0.2,0.04,0.24,0.06l0.05-0.19
		C2.46,0.43,2.35,0.4,2.23,0.4c-0.25,0-0.41,0.14-0.41,0.33c0,0.13,0.09,0.24,0.31,0.3C2.26,1.07,2.3,1.1,2.3,1.17
		c0,0.07-0.05,0.11-0.18,0.11c-0.1,0-0.22-0.04-0.29-0.08L1.79,1.4c0.08,0.04,0.2,0.08,0.34,0.08c0.29,0,0.44-0.14,0.44-0.33
		C2.56,1,2.47,0.9,2.27,0.84z"/>
	<path class="st0" d="M3.1,0.13L2.84,0.19V0.6H2.69v0.2h0.15V1.1c0,0.13,0.03,0.23,0.08,0.29c0.05,0.05,0.13,0.09,0.23,0.09
		c0.09,0,0.16-0.01,0.2-0.03L3.35,1.25C3.33,1.25,3.29,1.26,3.24,1.26c-0.11,0-0.14-0.07-0.14-0.2V0.8h0.26V0.6H3.1V0.13z"/>
	<polygon class="st0" points="3.51,1.49 3.78,1.49 3.78,0.9 4.13,0.9 4.13,0.68 3.78,0.68 3.78,0.3 4.31,0.3 4.31,0.09 3.51,0.09 	
		"/>
	<path class="st0" d="M4.58,0.53c0.08,0,0.13-0.06,0.13-0.12c0-0.07-0.05-0.12-0.13-0.12c-0.08,0-0.13,0.06-0.13,0.12
		C4.45,0.48,4.5,0.53,4.58,0.53z"/>
	<path class="st0" d="M6.02,0H5.76v0.59h0C5.7,0.52,5.59,0.45,5.43,0.45c-0.27,0-0.5,0.21-0.5,0.55c0,0.31,0.22,0.52,0.48,0.52
		c0.16,0,0.3-0.07,0.37-0.2h0l0.01,0.17h0.24C6.03,1.43,6.02,1.32,6.02,1.2V0z M5.76,1.03c0,0.03,0,0.05-0.01,0.08
		c-0.03,0.11-0.13,0.2-0.25,0.2c-0.18,0-0.29-0.14-0.29-0.32c0-0.19,0.11-0.33,0.29-0.33c0.13,0,0.23,0.08,0.25,0.19
		c0,0.02,0.01,0.05,0.01,0.07V1.03z"/>
	<path class="st0" d="M6.79,0.45C6.42,0.45,6.25,0.74,6.25,1c0,0.31,0.21,0.52,0.56,0.52c0.17,0,0.29-0.03,0.39-0.07L7.16,1.27
		C7.07,1.3,6.98,1.32,6.85,1.32c-0.18,0-0.33-0.09-0.34-0.26h0.75C7.26,1.04,7.26,1,7.26,0.96C7.26,0.75,7.16,0.45,6.79,0.45z
		 M6.51,0.87c0.01-0.1,0.09-0.24,0.27-0.24c0.2,0,0.24,0.17,0.24,0.24H6.51z"/>
	<rect x="7.48" class="st0" width="0.27" height="1.49"/>
	<path class="st0" d="M4.45,0.68v0.81h0.27V0.68C4.68,0.71,4.64,0.73,4.58,0.73C4.52,0.73,4.48,0.71,4.45,0.68z"/>
</g>
</svg>
